  0
SECTION
  2
HEADER
  9
$ACADVER
  1
AC1006
  9
$EXTMIN
 10
0.000000
 20
0.000000
 30
0.000000
  9
$EXTMAX
 10
351.000000
 20
265.000000
 30
0.000000
  0
ENDSEC
  0
SECTION
  2
ENTITIES
  0
POLYLINE
  8
0
 66
1
 70
1
  0
VERTEX
  8
0
 10
82.733829
 20
252.416467
 42
0.026572
  0
VERTEX
  8
0
 10
75.001417
 20
250.589726
 42
0.021477
  0
VERTEX
  8
0
 10
66.924788
 20
247.840679
 42
0.021858
  0
VERTEX
  8
0
 10
59.319803
 20
244.492471
 42
0.032594
  0
VERTEX
  8
0
 10
53.027916
 20
240.859806
 42
0.079088
  0
VERTEX
  8
0
 10
41.012531
 20
229.742008
 42
0.055689
  0
VERTEX
  8
0
 10
31.293226
 20
214.068234
 42
0.047438
  0
VERTEX
  8
0
 10
24.017377
 20
194.073892
 42
0.031130
  0
VERTEX
  8
0
 10
19.338632
 20
170.000000
 42
0.023833
  0
VERTEX
  8
0
 10
18.050505
 20
154.337849
 42
0.008657
  0
VERTEX
  8
0
 10
17.669581
 20
132.048758
 42
0.008675
  0
VERTEX
  8
0
 10
18.061937
 20
109.727962
 42
0.023368
  0
VERTEX
  8
0
 10
19.355825
 20
93.917340
 42
0.019202
  0
VERTEX
  8
0
 10
22.056226
 20
77.876615
 42
0.025504
  0
VERTEX
  8
0
 10
25.804258
 20
63.567566
 42
0.028433
  0
VERTEX
  8
0
 10
30.514975
 20
51.203657
 42
0.041998
  0
VERTEX
  8
0
 10
36.126841
 20
41.047912
 42
0.073199
  0
VERTEX
  8
0
 10
49.172302
 20
26.613760
 42
0.074748
  0
VERTEX
  8
0
 10
65.736177
 20
16.672811
 42
0.066719
  0
VERTEX
  8
0
 10
86.122150
 20
11.291651
 42
0.043383
  0
VERTEX
  8
0
 10
110.500000
 20
10.361804
 42
0.034647
  0
VERTEX
  8
0
 10
129.309636
 20
12.588924
 42
0.040569
  0
VERTEX
  8
0
 10
146.632611
 20
17.349916
 42
0.037708
  0
VERTEX
  8
0
 10
163.955235
 20
25.183333
 42
0.024127
  0
VERTEX
  8
0
 10
182.812827
 20
36.701305
 42
-0.009140
  0
VERTEX
  8
0
 10
192.655898
 20
43.125981
 42
-0.027588
  0
VERTEX
  8
0
 10
199.665387
 20
46.999410
 42
-0.035621
  0
VERTEX
  8
0
 10
205.999500
 20
49.518043
 42
-0.025896
  0
VERTEX
  8
0
 10
213.339681
 20
51.435134
 42
-0.035357
  0
VERTEX
  8
0
 10
222.815001
 20
52.702895
 42
-0.042397
  0
VERTEX
  8
0
 10
231.807643
 20
52.501230
 42
-0.030607
  0
VERTEX
  8
0
 10
242.716286
 20
50.647097
 42
-0.009282
  0
VERTEX
  8
0
 10
258.990768
 20
46.524125
 42
0.022538
  0
VERTEX
  8
0
 10
273.329578
 20
43.293375
 42
0.045124
  0
VERTEX
  8
0
 10
284.892244
 20
42.292354
 42
0.055453
  0
VERTEX
  8
0
 10
294.746057
 20
43.426789
 42
0.060717
  0
VERTEX
  8
0
 10
303.793789
 20
46.695679
 42
0.061623
  0
VERTEX
  8
0
 10
310.440515
 20
51.156400
 42
0.056181
  0
VERTEX
  8
0
 10
316.035743
 20
57.230472
 42
0.048407
  0
VERTEX
  8
0
 10
320.782698
 20
65.232754
 42
0.029005
  0
VERTEX
  8
0
 10
324.893335
 20
75.504379
 42
0.021339
  0
VERTEX
  8
0
 10
327.977010
 20
86.227845
 42
0.025862
  0
VERTEX
  8
0
 10
329.908139
 20
96.511484
 42
0.020360
  0
VERTEX
  8
0
 10
331.050758
 20
108.736103
 42
0.007560
  0
VERTEX
  8
0
 10
331.696076
 20
126.000000
 42
0.014945
  0
VERTEX
  8
0
 10
331.515316
 20
149.642707
 42
0.027573
  0
VERTEX
  8
0
 10
329.736983
 20
168.778924
 42
0.033368
  0
VERTEX
  8
0
 10
326.255654
 20
184.758681
 42
0.043826
  0
VERTEX
  8
0
 10
320.875601
 20
198.678628
 42
0.045423
  0
VERTEX
  8
0
 10
315.626713
 20
207.293968
 42
0.063966
  0
VERTEX
  8
0
 10
309.398975
 20
213.771589
 42
0.064692
  0
VERTEX
  8
0
 10
301.793632
 20
218.414620
 42
0.047789
  0
VERTEX
  8
0
 10
292.434390
 20
221.551449
 42
0.051291
  0
VERTEX
  8
0
 10
285.795728
 20
222.388295
 42
0.037475
  0
VERTEX
  8
0
 10
278.368767
 20
222.001662
 42
0.026481
  0
VERTEX
  8
0
 10
268.893939
 20
220.278749
 42
0.009306
  0
VERTEX
  8
0
 10
255.500000
 20
216.838192
 42
-0.027306
  0
VERTEX
  8
0
 10
234.370270
 20
212.213979
 42
-0.062197
  0
VERTEX
  8
0
 10
218.076843
 20
211.617060
 42
-0.074591
  0
VERTEX
  8
0
 10
204.039958
 20
215.000401
 42
-0.056533
  0
VERTEX
  8
0
 10
190.107551
 20
222.582269
 42
0.020171
  0
VERTEX
  8
0
 10
171.761493
 20
234.366891
 42
0.028449
  0
VERTEX
  8
0
 10
154.472080
 20
243.231258
 42
0.031495
  0
VERTEX
  8
0
 10
137.844943
 20
249.374348
 42
0.037398
  0
VERTEX
  8
0
 10
121.500000
 20
252.963822
 42
0.026474
  0
VERTEX
  8
0
 10
112.971424
 20
253.720399
 42
0.012416
  0
VERTEX
  8
0
 10
101.891916
 20
253.839089
 42
0.012370
  0
VERTEX
  8
0
 10
90.905386
 20
253.411969
 42
0.028824
  0
SEQEND
  0
ENDSEC
  0
EOF
